# xmcd
#
# Track frame offsets:
#	150
#	2455
#	17000
#	18387
#	20452
#	35600
#	51295
#	64417
#	84495
#	87602
#	100960
#	123290
#	126200
#	143070
#	161882
#	163582
#	182542
#	196342
#	197150
#	214315
#	227977
#	230330
#	238877
#	249257
#	252305
#
# Disc length: 3624 seconds
#
# Revision: 1
# Processed by: cddbd v1.5.2PL0 Copyright (c) Steve Scherf et al.
# Submitted via: EasyCDDAExtractor 8.0.0.2
#
DISCID=5b0e2619
DTITLE=Various Artist - DEVOÇÕES POPULARES
DYEAR=2006
DGENRE=Country
TTITLE0=PADRE DONIZETTI - BENÇÃO DO PADRE DONIZETTI
TTITLE1=FOLCLORE - LÁ NA CAPELA
TTITLE2=TERÇO CANTADO - ABERTURA
TTITLE3=CANTORES MINEIROS - PAI NOSSO
TTITLE4=SERRINHA and DONATTI - BOM JESUS DE PIRAPORA
TTITLE5=TRADIÇÕES RELIGIOSAS - AVE DE FATIMA
TTITLE6=TEDDY VIERA and PALMEIRA - MILAGRA DE TAMBAÚ
TTITLE7=TRAD.RELIGIOSO - AVE DE LOURDES
TTITLE8=C.MG - AVE MARIA
TTITLE9=TONICO and A.ROSAS - APARECIDA DO NORTE
TTITLE10=TRD.RELIGIOSO - AVE DE APARECIDA
TTITLE11=C.MG - AMADO JESUS
TTITLE12=TRAD. RELIGIOSO - MÂEZINHA DO CÉU
TTITLE13=TRAD. RELIGIOSO - OMILAGRE DAS ROSAS
TTITLE14=C.MG - BENDITO E LOUVADO SEJA
TTITLE15=FOLCLORE - SAÕ GONÇALO
TTITLE16=R.TORRES E JOÃO PACÍFICO - PINGO D'AGUA
TTITLE17=C.MG - GLÓRIA AO PAI
TTITLE18=FOLCLORE - CALIX BENTO
TTITLE19=FOLCLORE - ABC DE NOSSA SENHORA
TTITLE20=C.MG - SALVE RAINHA
TTITLE21=MARIANA A.C - FESTA MARAVILHOSA
TTITLE22=PE.JOSÉ FERREIRA - SENHORA MINHA
TTITLE23=C.MG - PECADOR,VEM BEIJAR NOSSA SENHORA
TTITLE24=TRAD.RELIGIOSO - DÁ-NOS A BENÇÃO
EXTD=
EXTT0=
EXTT1=
EXTT2=
EXTT3=
EXTT4=
EXTT5=
EXTT6=
EXTT7=
EXTT8=
EXTT9=
EXTT10=
EXTT11=
EXTT12=
EXTT13=
EXTT14=
EXTT15=
EXTT16=
EXTT17=
EXTT18=
EXTT19=
EXTT20=
EXTT21=
EXTT22=
EXTT23=
EXTT24=
PLAYORDER=
